<?xml version="1.0" encoding="utf-8"?>
<!-- Generator: Adobe Illustrator 22.1.0, SVG Export Plug-In . SVG Version: 6.00 Build 0)  -->
<svg version="1.1" id="Layer_1" xmlns="http://www.w3.org/2000/svg" xmlns:xlink="http://www.w3.org/1999/xlink" x="0px" y="0px"
	 viewBox="0 0 817 175.2" style="enable-background:new 0 0 817 175.2;" xml:space="preserve">
<style type="text/css">
	.st0{fill:#303AB2;}
	.st1{fill:#353535;}
</style>
<g>
	<g>
		<path class="st0" d="M115.3,87.6c0,8.8-3.4,17-9.6,23.2c-6.2,6.2-14.5,9.6-23.2,9.6h-0.1V98.6H60.4V76.7h21.9V54.8h0.1
			C100.5,54.8,115.3,69.5,115.3,87.6"/>
		<path class="st0" d="M149,26.6C133.4,11,111.9,1.4,88,1.4C40.4,1.4,1.8,40,1.8,87.6c0,23.8,9.7,45.4,25.3,61
			c15.6,15.6,37.2,25.3,61,25.3c23.8,0,45.4-9.6,61-25.3c15.6-15.6,25.3-37.2,25.3-61C174.3,63.8,164.6,42.2,149,26.6 M121.6,126.8
			C111.1,137.2,97.2,143,82.4,143h-0.1v-22.5H60.4V98.6H38.5V76.7h21.9V54.8h21.9V32.2h0.1c30.5,0,55.4,24.8,55.4,55.4
			C137.8,102.4,132,116.3,121.6,126.8"/>
	</g>
	<g>
		<path class="st1" d="M275.2,53.6c-4.5-3.2-9.8-5.6-15.6-7c-5.8-1.4-11.7-2.1-17.6-2.1h-31v85h31.9c5.8,0,11.5-0.8,17.2-2.4
			c5.6-1.6,10.8-4.2,15.3-7.7c4.5-3.5,8.2-8,10.9-13.3c2.8-5.4,4.2-11.9,4.2-19.3c0-7.9-1.4-14.7-4.2-20.2
			C283.5,61.2,279.7,56.8,275.2,53.6z M267.6,86.8c0,4.4-0.7,8.2-2.2,11.2c-1.4,3-3.4,5.4-5.8,7.1c-2.4,1.8-5.3,3.1-8.4,3.9
			c-3.2,0.8-6.6,1.2-10.1,1.2h-8.5V63.7h9c3.3,0,6.6,0.4,9.8,1.1c3.1,0.7,5.9,2,8.3,3.8c2.4,1.7,4.3,4.1,5.8,7
			C266.9,78.5,267.6,82.3,267.6,86.8z"/>
		<path class="st1" d="M357.9,70.6c-3.4-3-7.2-5.3-11.6-6.9c-4.4-1.6-9.1-2.4-14.1-2.4c-4.9,0-9.6,0.8-14.1,2.4
			c-4.5,1.6-8.3,3.9-11.6,6.9c-3.3,3-5.9,6.7-7.9,11c-1.9,4.3-2.9,9.2-2.9,14.5c0,5.4,1,10.2,2.9,14.6c1.9,4.4,4.6,8.1,7.9,11.1
			c3.3,3,7.2,5.4,11.6,7.1c4.5,1.7,9.1,2.5,14.1,2.5c5,0,9.7-0.8,14.1-2.5c4.4-1.7,8.3-4,11.6-7.1c3.3-3,6-6.7,7.9-11.1
			c1.9-4.4,2.9-9.2,2.9-14.6c0-5.4-1-10.2-2.9-14.5C363.9,77.3,361.3,73.6,357.9,70.6z M346.9,102.3c-0.7,2-1.7,3.9-3,5.5
			c-1.3,1.6-3,2.9-4.9,3.9c-1.9,1-4.2,1.5-6.7,1.5c-2.6,0-4.8-0.5-6.7-1.5c-1.9-1-3.6-2.3-4.9-3.9c-1.3-1.6-2.3-3.5-3-5.5
			c-0.7-2-1-4.1-1-6.2s0.3-4.2,1-6.2c0.7-2,1.6-3.8,2.9-5.4c1.3-1.5,2.9-2.8,4.8-3.8c1.9-1,4.2-1.5,6.7-1.5c2.6,0,4.8,0.5,6.7,1.5
			c1.9,1,3.6,2.2,4.9,3.8c1.3,1.5,2.3,3.3,3,5.4c0.7,2,1.1,4.1,1.1,6.2S347.5,100.3,346.9,102.3z"/>
		<path class="st1" d="M400.5,84.5c1.3-1.5,2.9-2.8,4.8-3.7c1.9-0.9,3.9-1.4,6.2-1.4c2.2,0,4.4,0.5,6.5,1.5c2.1,1,3.8,2.2,5,3.8
			l12.6-14.5c-1.3-1.3-2.9-2.5-4.7-3.6c-1.8-1.1-3.8-2-6-2.8c-2.2-0.7-4.4-1.3-6.7-1.8c-2.3-0.4-4.7-0.7-7.1-0.7
			c-5.1,0-9.9,0.8-14.4,2.4c-4.5,1.6-8.4,4-11.8,7c-3.3,3-5.9,6.7-7.8,11c-1.9,4.3-2.9,9.2-2.9,14.5c0,5.5,1,10.4,2.9,14.7
			c1.9,4.3,4.5,8,7.8,11c3.3,3,7.2,5.4,11.8,6.9c4.5,1.6,9.4,2.4,14.6,2.4c4.8,0,9.4-0.8,13.8-2.2c4.3-1.5,7.8-3.6,10.6-6.2
			l-12-14.7c-1.3,1.6-3.1,2.8-5.2,3.6c-2.2,0.8-4.3,1.3-6.5,1.3c-2.4,0-4.5-0.4-6.4-1.3c-1.9-0.9-3.5-2.1-4.9-3.6
			c-1.4-1.5-2.4-3.3-3.1-5.4c-0.7-2-1.1-4.2-1.1-6.5c0-2.3,0.4-4.5,1.1-6.5C398.1,87.9,399.2,86.1,400.5,84.5z"/>
		<path class="st1" d="M485.8,99c0,3.8-1,7.1-3,9.9c-2,2.8-4.9,4.2-8.7,4.2c-2,0-3.7-0.4-4.9-1.1c-1.2-0.7-2.2-1.8-3-3.1
			c-0.8-1.3-1.3-2.8-1.5-4.5c-0.3-1.7-0.4-3.4-0.4-5.3V63.5h-21.8v40.7c0,3.4,0.4,6.6,1.3,9.9c0.8,3.2,2.2,6.1,4.1,8.6
			c1.9,2.5,4.4,4.6,7.4,6.1s6.8,2.4,11.2,2.4c2.3,0,4.5-0.3,6.5-0.9c2.1-0.6,4-1.4,5.7-2.4c1.7-1,3.2-2.1,4.5-3.4
			c1.3-1.3,2.3-2.7,3.1-4.2h0.3v9.1h20.9V63.5h-21.7V99z"/>
		<polygon class="st1" points="612.5,44.6 599.7,97.4 585.6,45.3 585.4,44.6 563,44.6 548.9,97.4 536.3,44.6 512.6,44.6 
			536.8,129.6 558.2,129.6 574,75.4 589.9,129.6 611.2,129.6 635.4,44.6 		"/>
		<path class="st1" d="M686.4,69.7c-2.4-2.9-5.5-5-9.3-6.3c-3.8-1.4-8.5-2-14.1-2c-5.4,0-10.6,0.9-15.8,2.8
			c-5.2,1.9-9.7,4.6-13.6,8.3l11,11.8c2-1.9,4.5-3.4,7.3-4.8c2.9-1.3,5.8-2,8.9-2c3.3,0,6.2,0.8,8.5,2.3c2.3,1.5,3.4,3.9,3.4,7.2
			v1.1c-4.8,0-9.7,0.3-14.7,0.8c-5,0.5-9.6,1.6-13.7,3.2c-4.1,1.6-7.5,3.8-10,6.7c-2.6,2.9-3.9,6.7-3.9,11.5c0,3.9,0.7,7.1,2.2,9.8
			c1.5,2.6,3.4,4.8,5.8,6.3c2.3,1.6,4.9,2.7,7.7,3.4c2.8,0.7,5.6,1.1,8.2,1.1c4,0,7.6-0.8,11-2.2c3.4-1.5,5.9-3.6,7.6-6.3h0.4v7
			h19.8V96.1c0-6-0.6-11.2-1.7-15.5C690.5,76.2,688.8,72.6,686.4,69.7z M673.4,102.9c0,4.1-1.2,7.4-3.5,9.9
			c-2.3,2.4-5.7,3.6-10.1,3.6c-1.1,0-2.2-0.1-3.3-0.3c-1.1-0.2-2.2-0.6-3-1.1c-0.9-0.5-1.6-1.2-2.2-2.1c-0.6-0.9-0.9-1.9-0.9-3.2
			c0-1.9,0.6-3.5,1.9-4.7c1.2-1.2,2.8-2.1,4.7-2.7c1.9-0.6,4.1-1,6.5-1.3c2.4-0.2,4.8-0.3,7.2-0.3h2.8V102.9z"/>
		<path class="st1" d="M740.3,61.6c-4.1,0-7.6,1.1-10.7,3.2c-3.1,2.1-5.5,4.9-7.1,8.3h-0.3v-9.5h-20.9v65.8h21.7V95.5
			c0-1.3,0.3-2.9,0.8-4.6s1.4-3.4,2.6-4.9c1.2-1.5,2.8-2.8,4.8-3.8c2-1.1,4.4-1.6,7.3-1.6c0.9,0,1.8,0,2.7,0.1
			c0.9,0.1,1.9,0.3,2.8,0.5l0.9-19.2c-0.5-0.2-1.2-0.3-2-0.4C742,61.7,741.1,61.6,740.3,61.6z"/>
		<path class="st1" d="M812.5,82.1c-1.6-4.4-3.9-8.2-6.8-11.2c-2.9-3.1-6.4-5.4-10.4-7.1c-4.1-1.6-8.5-2.4-13.4-2.4
			c-5,0-9.7,0.8-14,2.5c-4.3,1.7-8.1,4-11.2,7.1s-5.7,6.7-7.5,11.1s-2.8,9.2-2.8,14.6c0,5.6,0.9,10.5,2.8,14.8
			c1.9,4.3,4.5,8,7.8,10.9c3.3,3,7.2,5.2,11.6,6.7c4.4,1.5,9.1,2.3,14,2.3c6.7,0,12.6-1.2,17.7-3.6c5.1-2.4,9.1-5.9,12.2-10.4
			l-15.1-9.5c-1.5,2-3.4,3.7-5.8,5c-2.4,1.3-5.3,1.9-8.7,1.9c-1.9,0-3.8-0.3-5.6-0.9c-1.8-0.6-3.4-1.5-4.9-2.6
			c-1.5-1.1-2.6-2.4-3.6-3.9c-0.9-1.5-1.5-3.2-1.7-5h47.7c0.1-0.8,0.1-1.6,0.1-2.5c0-0.9,0-1.8,0-2.6
			C815,91.5,814.1,86.5,812.5,82.1z M767.1,88.8c0.1-1.7,0.5-3.3,1.3-4.8c0.8-1.5,1.9-2.9,3.2-4c1.3-1.1,2.9-2,4.6-2.7s3.7-1,5.8-1
			c4.3,0,7.6,1.2,9.7,3.7c2.2,2.5,3.2,5.4,3.2,8.9H767.1z"/>
	</g>
</g>
</svg>
