<svg width="144" height="35" viewBox="0 0 144 35" fill="none" xmlns="http://www.w3.org/2000/svg">
<path d="M69.8556 5.1422H62.9639V7.66664H66.6271V10.7127C66.6271 11.2248 66.0373 11.3636 65.328 11.3636H58.3336C57.6244 11.3636 57.0155 11.2056 57.0155 10.672V3.472C57.0155 2.88097 57.3307 2.5053 58.3336 2.5053H69.6407V0H58.3527C55.4991 0 53.806 1.00499 53.806 3.472V10.6912C53.806 12.8806 55.4991 13.888 58.3527 13.888H65.328C68.4181 13.888 69.8556 13.1773 69.8556 10.7127V5.1422Z" fill="#002854"/>
<path d="M7.14723 13.9167V2.53395H0V0.028656H17.363V2.53395H10.3734V13.9167H7.14484H7.14723Z" fill="#002854"/>
<path d="M31.87 0.028717H35.0794V10.562C35.0794 12.5552 33.8592 13.9167 30.6306 13.9167H23.3497C20.1211 13.9167 18.9009 12.5552 18.9009 10.562V0.028717H22.1103V10.5835C22.1103 11.1554 22.5425 11.3923 23.3497 11.3923H30.6306C31.4378 11.3923 31.87 11.1554 31.87 10.5835V0.028717Z" fill="#002854"/>
<path d="M71.6418 13.9167V11.3923H83.2689C84.174 11.3923 84.5298 11.2344 84.5298 10.5644V8.57114C84.5298 7.93943 84.1549 7.72407 83.2689 7.72407H75.6775C72.4299 7.72407 71.1881 6.36255 71.1881 4.35018V3.40261C71.1881 1.39024 72.4275 0.028717 75.6775 0.028717H86.9703V2.53402H75.6775C74.8322 2.53402 74.3976 2.75176 74.3976 3.38108V4.36693C74.3976 4.95796 74.7725 5.21638 75.6775 5.21638H83.2689C86.5166 5.21638 87.7583 6.57791 87.7583 8.59028V10.5237C87.7583 12.5361 86.519 13.9167 83.2689 13.9167H71.6418Z" fill="#002854"/>
<path d="M95.6601 13.9167V2.53402H88.5129V0.028717H105.876V2.53402H98.8863V13.9167H95.6577H95.6601Z" fill="#002854"/>
<path d="M107.433 13.9167V0.028717H122.561V2.53402H110.642V5.31449H121.949V7.83893H110.642V11.3899H122.561V13.9143H107.433V13.9167Z" fill="#002854"/>
<path d="M126.833 0.028717H124.096V13.9167H126.893V3.79743L138.164 13.9167H139.74V11.555L126.833 0.028717Z" fill="#002854"/>
<path d="M139.74 9.53545V0.028717H136.924V7.0134L139.74 9.53545Z" fill="#002854"/>
<path d="M39.3515 0.028717H36.6149V13.9167H39.4112V3.79743L50.6825 13.9167H52.2585V11.555L39.3515 0.028717Z" fill="#002854"/>
<path d="M52.2585 9.53545V0.028717H49.4431V7.0134L52.2585 9.53545Z" fill="#002854"/>
<path d="M37.539 17.9989H143.9V35H29.6849L37.539 17.9989ZM117.809 28.6757C117.809 29.0012 117.856 29.3027 117.95 29.5707C118.047 29.8482 118.203 30.0923 118.418 30.2933C118.628 30.4919 118.902 30.6498 119.232 30.7575C119.552 30.8628 119.943 30.9178 120.395 30.9178H125.39C125.842 30.9178 126.231 30.8628 126.553 30.7575C126.883 30.6474 127.155 30.4919 127.368 30.2933C127.58 30.0923 127.738 29.8482 127.836 29.5707C127.929 29.3027 127.977 29.0012 127.977 28.6757V24.3208C127.977 23.9953 127.929 23.6938 127.836 23.4259C127.738 23.1483 127.583 22.9042 127.368 22.7032C127.158 22.5046 126.883 22.3467 126.553 22.239C126.233 22.1337 125.842 22.0787 125.39 22.0787H120.395C119.943 22.0787 119.554 22.1337 119.232 22.239C118.902 22.3491 118.63 22.5046 118.418 22.7032C118.205 22.9042 118.047 23.1483 117.95 23.4259C117.856 23.6938 117.809 23.9953 117.809 24.3208V28.6757ZM114.544 30.9202H116.39V22.0787H114.544V30.9202ZM129.307 30.9202H130.971V24.5936L138.758 30.9202H139.74V29.5132L138.3 28.2857L130.828 22.0787H129.309V30.9202H129.307ZM107.476 23.7417V30.9202H109.322V23.7417H113.181V22.0787H103.509V23.7417H107.476ZM139.74 28.3312V22.0787H138.075V26.9122L139.74 28.3312ZM119.657 28.6901C119.657 28.9701 119.745 29.2596 120.392 29.2596H125.388C126.038 29.2596 126.124 28.9724 126.124 28.6901V24.3112C126.124 24.0312 126.035 23.7417 125.388 23.7417H120.392C119.743 23.7417 119.657 24.0288 119.657 24.3112V28.6901ZM48.1799 28.6781C48.1799 29.0035 48.2276 29.305 48.3207 29.573C48.4187 29.8506 48.5739 30.0947 48.7888 30.2957C49.0013 30.4943 49.2735 30.6522 49.6031 30.7599C49.9231 30.8652 50.3147 30.9202 50.766 30.9202H55.7641C56.2178 30.9202 56.5951 30.8652 56.884 30.7575C57.1849 30.645 57.4261 30.4847 57.6052 30.2789C57.7819 30.0731 57.9013 29.8267 57.9634 29.5467C58.0207 29.2859 58.0494 28.994 58.0494 28.6757V22.0787H56.2011V28.6877C56.2011 28.9677 56.1127 29.2572 55.4656 29.2572H50.7684C50.1189 29.2572 50.0329 28.9701 50.0329 28.6877V22.0787H48.1846V28.6757L48.1799 28.6781ZM59.3771 23.7441H63.3435V30.9226H65.1894V23.7441H69.0484V22.0811H59.3771V23.7441ZM70.2472 28.6781C70.2472 29.0035 70.295 29.305 70.3881 29.573C70.486 29.8506 70.6412 30.0947 70.8561 30.2957C71.0687 30.4943 71.3409 30.6522 71.6704 30.7599C71.9904 30.8652 72.382 30.9202 72.8334 30.9202H77.8314C78.2827 30.9202 78.672 30.8652 78.9944 30.7599C79.3239 30.6522 79.5961 30.4943 79.8087 30.2957C80.0212 30.0947 80.1788 29.8506 80.2767 29.573C80.3698 29.305 80.4176 29.0035 80.4176 28.6781V24.3232C80.4176 23.9977 80.3698 23.6986 80.2767 23.4282C80.1788 23.1507 80.0236 22.9066 79.8087 22.7056C79.5985 22.507 79.3239 22.3491 78.9944 22.2414C78.6744 22.1361 78.2827 22.0811 77.8314 22.0811H72.8334C72.382 22.0811 71.9928 22.1361 71.6704 22.2414C71.3409 22.3515 71.0687 22.507 70.8561 22.7056C70.6412 22.9066 70.486 23.1507 70.3881 23.4282C70.295 23.6962 70.2472 23.9977 70.2472 24.3232V28.6781ZM72.0955 28.6901C72.0955 28.9701 72.1838 29.2596 72.831 29.2596H77.829C78.4786 29.2596 78.5645 28.9724 78.5645 28.6901V24.3112C78.5645 24.0312 78.4762 23.7417 77.829 23.7417H72.831C72.1815 23.7417 72.0955 24.0288 72.0955 24.3112V28.6901ZM81.9531 30.9202H83.6939V25.5244L87.2305 30.9202H88.6275L92.1521 25.5148V30.9202H93.893V22.0787H92.3456L87.9875 28.7834L83.67 22.172L83.6079 22.0763H81.9531V30.9178V30.9202ZM94.4971 30.9059H96.5747L99.7961 24.1317L101.573 27.1682H99.6074L98.8958 28.7834H102.499L103.72 30.9059H105.916L100.67 22.0643H98.5758L94.49 30.9059H94.4971ZM40.3473 22.05L36.2614 30.8915H38.339L41.5604 24.1174L43.337 27.1539H41.3717L40.6601 28.7691H44.2636L45.4838 30.8915H47.6808L42.4344 22.05H40.3401H40.3473Z" fill="#002854"/>
</svg>
